# xmcd
#
# Track frame offsets:
#	150
#	12828
#	22975
#	38173
#	49288
#	59470
#	69541
#	81857
#	92398
#	102030
#	113699
#	126272
#
# Disc length: 1817 seconds
#
# Revision: 1
# Processed by: cddbd v1.5.1PL2 Copyright (c) Steve Scherf et al.
# Submitted via: audiograbber 1.80
#
DISCID=9107170c
DTITLE=Cline, Patsy - Showcase
DYEAR=1900
DGENRE=
TTITLE0=I Fall To Pieces
TTITLE1=Foolin' 'Round
TTITLE2=The Wayward Wind
TTITLE3=South Of The Border (Down Mexico Way)
TTITLE4=I Love You So Much It Hurts
TTITLE5=Seven Lonely Days
TTITLE6=Crazy
TTITLE7=San Antonio Rose
TTITLE8=True Love
TTITLE9=Walkin' After Midnight
TTITLE10=Poor Man's Roses (Or A Rich Man's Gold)
TTITLE11=Have You Ever Been Lonely (Have You Ever Been Blue)
EXTD=
EXTT0=
EXTT1=
EXTT2=
EXTT3=
EXTT4=
EXTT5=
EXTT6=
EXTT7=
EXTT8=
EXTT9=
EXTT10=
EXTT11=
PLAYORDER=
